name Walk8.mot
datacolumns 19
datarows 20
range 1.05600000 1.07500000
endheader

                time	   L_ground_force_vx	   L_ground_force_vy	   L_ground_force_vz	   L_ground_force_px	   L_ground_force_py	   L_ground_force_pz	   R_ground_force_vx	   R_ground_force_vy	   R_ground_force_vz	   R_ground_force_px	   R_ground_force_py	   R_ground_force_pz	   L_ground_torque_x	   L_ground_torque_y	   L_ground_torque_z	   R_ground_torque_x	   R_ground_torque_y	   R_ground_torque_z	
          1.05600000	          0.00000000	          0.00000000	          0.00000000	          0.00000000	          0.00000000	          0.00000000	          0.00000000	          0.00000000	          0.00000000	          0.00000000	          0.00000000	          0.00000000	          0.00000000	          0.00000000	          0.00000000	          0.00000000	          0.00000000	          0.00000000	
          1.05700000	          0.00000000	          0.00000000	          0.00000000	          0.00000000	          0.00000000	          0.00000000	          0.00000000	          0.00000000	          0.00000000	          0.00000000	          0.00000000	          0.00000000	          0.00000000	          0.00000000	          0.00000000	          0.00000000	          0.00000000	          0.00000000	
          1.05800000	          0.00000000	          0.00000000	          0.00000000	          0.00000000	          0.00000000	          0.00000000	          0.00000000	          0.00000000	          0.00000000	          0.00000000	          0.00000000	          0.00000000	          0.00000000	          0.00000000	          0.00000000	          0.00000000	          0.00000000	          0.00000000	
          1.05900000	          0.00000000	          0.00000000	          0.00000000	          0.00000000	          0.00000000	          0.00000000	          0.00000000	          0.00000000	          0.00000000	          0.00000000	          0.00000000	          0.00000000	          0.00000000	          0.00000000	          0.00000000	          0.00000000	          0.00000000	          0.00000000	
          1.06000000	          0.00000000	          0.00000000	          0.00000000	          0.00000000	          0.00000000	          0.00000000	         -2.59537183	          7.18361125	          0.36025288	         -0.45348703	          0.00000000	         -0.06199446	          0.00000000	          0.00000000	          0.00000000	          0.00000000	         -0.01430115	          0.00000000	
          1.06100000	          0.00000000	          0.00000000	          0.00000000	          0.00000000	          0.00000000	          0.00000000	         -4.66318621	         15.83259185	          0.55327632	         -0.45049628	          0.00000000	         -0.06340452	          0.00000000	          0.00000000	          0.00000000	          0.00000000	         -0.01803133	          0.00000000	
          1.06200000	          0.00000000	          0.00000000	          0.00000000	          0.00000000	          0.00000000	          0.00000000	         -7.17918844	         28.28747924	          0.72743964	         -0.44873830	          0.00000000	         -0.06343796	          0.00000000	          0.00000000	          0.00000000	          0.00000000	         -0.01228212	          0.00000000	
          1.06300000	          0.00000000	          0.00000000	          0.00000000	          0.00000000	          0.00000000	          0.00000000	         -9.99590981	         44.96733799	          0.83590312	         -0.44753279	          0.00000000	         -0.06252795	          0.00000000	          0.00000000	          0.00000000	          0.00000000	          0.00899931	          0.00000000	
          1.06400000	          0.00000000	          0.00000000	          0.00000000	          0.00000000	          0.00000000	          0.00000000	        -12.99323101	         66.42078949	          0.82961419	         -0.44673000	          0.00000000	         -0.06116210	          0.00000000	          0.00000000	          0.00000000	          0.00000000	          0.04784608	          0.00000000	
          1.06500000	          0.00000000	          0.00000000	          0.00000000	          0.00000000	          0.00000000	          0.00000000	        -15.97706262	         92.84497816	          0.64768248	         -0.44620055	          0.00000000	         -0.05986700	          0.00000000	          0.00000000	          0.00000000	          0.00000000	          0.10209351	          0.00000000	
          1.06600000	          0.00000000	          0.00000000	          0.00000000	          0.00000000	          0.00000000	          0.00000000	        -18.64476761	        123.55258444	          0.21713066	         -0.44582650	          0.00000000	         -0.05895024	          0.00000000	          0.00000000	          0.00000000	          0.00000000	          0.16530819	          0.00000000	
          1.06700000	          0.00000000	          0.00000000	          0.00000000	          0.00000000	          0.00000000	          0.00000000	        -20.66816617	        156.74781197	         -0.53773768	         -0.44555056	          0.00000000	         -0.05839729	          0.00000000	          0.00000000	          0.00000000	          0.00000000	          0.22924356	          0.00000000	
          1.06800000	          0.00000000	          0.00000000	          0.00000000	          0.00000000	          0.00000000	          0.00000000	        -21.81731900	        189.73924936	         -1.67686697	         -0.44535376	          0.00000000	         -0.05801362	          0.00000000	          0.00000000	          0.00000000	          0.00000000	          0.28691591	          0.00000000	
          1.06900000	          0.00000000	          0.00000000	          0.00000000	          0.00000000	          0.00000000	          0.00000000	        -22.04239380	        219.56684829	         -3.21816127	         -0.44521585	          0.00000000	         -0.05765631	          0.00000000	          0.00000000	          0.00000000	          0.00000000	          0.33105574	          0.00000000	
          1.07000000	          0.00000000	          0.00000000	          0.00000000	          0.00000000	          0.00000000	          0.00000000	        -21.48121254	        243.75737761	         -5.11530783	         -0.44509300	          0.00000000	         -0.05730122	          0.00000000	          0.00000000	          0.00000000	          0.00000000	          0.35434714	          0.00000000	
          1.07100000	          0.00000000	          0.00000000	          0.00000000	          0.00000000	          0.00000000	          0.00000000	        -20.40014920	        260.83937097	         -7.25869384	         -0.44492892	          0.00000000	         -0.05696201	          0.00000000	          0.00000000	          0.00000000	          0.00000000	          0.35388025	          0.00000000	
          1.07200000	          0.00000000	          0.00000000	          0.00000000	          0.00000000	          0.00000000	          0.00000000	        -19.10051191	        270.47587935	         -9.50077565	         -0.44469442	          0.00000000	         -0.05665162	          0.00000000	          0.00000000	          0.00000000	          0.00000000	          0.33261093	          0.00000000	
          1.07300000	          0.00000000	          0.00000000	          0.00000000	          0.00000000	          0.00000000	          0.00000000	        -17.83691642	        273.30161444	        -11.69025330	         -0.44440101	          0.00000000	         -0.05642131	          0.00000000	          0.00000000	          0.00000000	          0.00000000	          0.29760991	          0.00000000	
          1.07400000	          0.00000000	          0.00000000	          0.00000000	          0.00000000	          0.00000000	          0.00000000	        -16.77741883	        270.61931620	        -13.70172842	         -0.44407504	          0.00000000	         -0.05635711	          0.00000000	          0.00000000	          0.00000000	          0.00000000	          0.25898307	          0.00000000	
          1.07500000	          0.00000000	          0.00000000	          0.00000000	          0.00000000	          0.00000000	          0.00000000	        -16.00255336	        264.06887418	        -15.44723860	         -0.44373732	          0.00000000	         -0.05650406	          0.00000000	          0.00000000	          0.00000000	          0.00000000	          0.22732500	          0.00000000	
